# xmcd CD database file
#
# Track frame offsets:
#	150
#	10045
#	21004
#	30604
#	41007
#	53785
#	66875
#	81437
#	101920
#	109658
#	120575
#	129118
#	138377
#	151329
#	162667
#
# Disc length: 2274 seconds
#
# Revision: 0
# Processed by: cddbd v1.5.2PL0 Copyright (c) Steve Scherf et al.
# Submitted via: CDex 1.50
#
DISCID=c108e00f
DTITLE=Perez Prado - Legends CD2
DYEAR=2005
DGENRE=Jazz
TTITLE0=Mambo No. 5
TTITLE1=Guaglione
TTITLE2=Adios pampa Mia (Cha Cha Cha)
TTITLE3=Canallo Negro (Mambo Batiri)
TTITLE4=Almendra (Almond)
TTITLE5=La Comparsa
TTITLE6=Baia
TTITLE7=Granada
TTITLE8=Rockambo Baby
TTITLE9=My Roberta
TTITLE10=Paper Doll
TTITLE11=Ciribiribin
TTITLE12=Cu-Cu-Rru-Cu-Cu-Paloma
TTITLE13=La Borrachita (I'll Never Love Again)
TTITLE14=San Remo
EXTD=YEAR: 2005
EXTT0=
EXTT1=
EXTT2=
EXTT3=
EXTT4=
EXTT5=
EXTT6=
EXTT7=
EXTT8=
EXTT9=
EXTT10=
EXTT11=
EXTT12=
EXTT13=
EXTT14=
PLAYORDER=
